<svg role="img" viewBox="0 0 24 24" xmlns="http://www.w3.org/2000/svg">
	<title>Svelte</title>
	<g scale="30">
	<path d="
		M10.354 21.125
		a 4.44 4.44 0 0 1-4.765-1.767 4.109 4.109 0 0 1-.703-3.107 3.898 3.898 0 0 1 .134-.522
		l .105-.321.287.21
		a 7.21 7.21 0 0 0 2.186 1.092l.208.063-.02.208
		a 1.253 1.253 0 0 0 .226.83 1.337 1.337 0 0 0 1.435.533 1.231 1.231 0 0 0 .343-.15
		l 5.59-3.562
		a 1.164 1.164 0 0 0 .524-.778 1.242 1.242 0 0 0-.211-.937 1.338 1.338 0 0 0-1.435-.533 1.23 1.23 0 0 0-.343.15
		l -2.133 1.36
		a 4.078 4.078 0 0 1-1.135.499 4.44 4.44 0 0 1-4.765-1.766 4.108 4.108 0 0 1-.702-3.108 3.855 3.855 0 0 1 1.742-2.582
		l 5.589-3.563
		a 4.072 4.072 0 0 1 1.135-.499 4.44 4.44 0 0 1 4.765 1.767 4.109 4.109 0 0 1 .703 3.107 3.943 3.943 0 0 1-.134.522
		l -.105.321-.286-.21
		a 7.204 7.204 0 0 0-2.187-1.093l-.208-.063.02-.207
		a 1.255 1.255 0 0 0-.226-.831 1.337 1.337 0 0 0-1.435-.532 1.231 1.231 0 0 0-.343.15
		L 8.62 9.368
		a 1.162 1.162 0 0 0-.524.778 1.24 1.24 0 0 0 .211.937 1.338 1.338 0 0 0 1.435.533 1.235 1.235 0 0 0 .344-.151
		l 2.132-1.36
		a 4.067 4.067 0 0 1 1.135-.498 4.44 4.44 0 0 1 4.765 1.766 4.108 4.108 0 0 1 .702 3.108 3.857 3.857 0 0 1-1.742 2.583
		l -5.589 3.562
		a 4.072 4.072 0 0 1-1.135.499
		m 10.358-17.95
		C 18.484-.015 14.082-.96 10.9 1.068
		L 5.31 4.63
		a 6.412 6.412 0 0 0-2.896 4.295 6.753 6.753 0 0 0 .666 4.336 6.43 6.43 0 0 0-.96 2.396 6.833 6.833 0 0 0 1.168 5.167
		c 2.229 3.19 6.63 4.135 9.812 2.108
		l 5.59-3.562
		a 6.41 6.41 0 0 0 2.896-4.295 6.756 6.756 0 0 0-.665-4.336 6.429 6.429 0 0 0 .958-2.396 6.831 6.831 0 0 0-1.167-5.168
		Z"/>
	</g>
</svg>
